<?xml version="1.0" standalone="no"?>
<!DOCTYPE svg PUBLIC "-//W3C//DTD SVG 20010904//EN"
 "http://www.w3.org/TR/2001/REC-SVG-20010904/DTD/svg10.dtd">
<svg version="1.0" xmlns="http://www.w3.org/2000/svg"
 width="512.000000pt" height="512.000000pt" viewBox="0 0 512.000000 512.000000"
 preserveAspectRatio="xMidYMid meet">

<g transform="translate(0.000000,512.000000) scale(0.100000,-0.100000)"
fill="#000000" stroke="none">
<path d="M2337 4739 c-465 -45 -929 -262 -1281 -599 -834 -800 -916 -2059
-191 -2955 323 -400 795 -683 1302 -782 127 -24 159 -27 388 -27 217 -1 266 2
371 22 453 83 859 295 1179 617 361 362 579 809 636 1304 15 136 7 475 -15
596 -130 710 -580 1306 -1222 1617 -363 176 -760 246 -1167 207z m-307 -363
c0 -3 -23 -31 -51 -63 -98 -112 -202 -291 -270 -463 -18 -47 -34 -86 -35 -88
-1 -1 -34 9 -75 24 -86 31 -251 114 -292 147 l-29 23 76 62 c168 140 368 255
567 327 96 35 109 38 109 31z m1200 -43 c178 -65 384 -186 543 -319 37 -31 66
-61 64 -67 -6 -19 -168 -106 -274 -147 -56 -22 -104 -40 -106 -40 -3 0 -18 32
-32 71 -64 167 -177 361 -280 483 -66 77 -70 76 85 19z m-810 -349 l0 -347
-102 7 c-108 8 -321 33 -350 42 -22 6 -14 29 62 190 95 202 200 340 313 414
34 22 65 40 69 40 5 0 8 -156 8 -346z m353 312 c63 -40 159 -139 214 -221 76
-113 194 -369 177 -384 -11 -10 -225 -38 -361 -47 l-103 -7 0 347 c0 234 3
346 10 346 6 0 34 -15 63 -34z m-1600 -608 c90 -57 222 -121 340 -163 69 -25
78 -31 73 -49 -40 -145 -88 -464 -102 -673 l-7 -103 -405 0 -405 0 7 73 c23
236 127 542 253 747 55 88 150 220 160 220 3 0 42 -23 86 -52z m2900 10 c146
-182 265 -421 327 -660 24 -90 59 -284 60 -331 0 -4 -183 -6 -407 -5 l-408 3
-7 121 c-10 184 -59 510 -97 642 l-9 30 91 32 c105 36 280 123 352 174 28 19
53 35 57 35 4 1 22 -18 41 -41z m-2001 -308 c69 -10 176 -22 237 -26 l111 -7
0 -328 0 -329 -327 0 -326 0 7 112 c10 168 72 567 93 601 3 5 22 6 42 3 20 -4
93 -15 163 -26z m1202 -37 c34 -153 65 -371 81 -575 l6 -78 -331 0 -330 0 2
328 3 327 150 13 c83 7 197 21 255 31 159 28 146 32 164 -46z m-1790 -1040
c13 -204 46 -437 87 -612 22 -95 24 -91 -56 -117 -79 -26 -266 -117 -344 -168
-39 -25 -75 -46 -79 -46 -4 1 -32 35 -63 78 -182 249 -291 507 -344 816 -8 49
-15 104 -15 122 l0 34 404 0 403 0 7 -107z m936 -227 l0 -334 -67 -6 c-158
-14 -284 -28 -376 -43 -78 -13 -100 -14 -106 -4 -27 44 -101 527 -101 664 l0
57 325 0 325 0 0 -334z m935 247 c-11 -157 -36 -335 -66 -488 -17 -82 -32
-152 -34 -153 -2 -2 -84 8 -183 22 -98 14 -199 26 -223 26 -24 0 -68 3 -96 6
l-53 7 0 333 0 334 331 0 330 0 -6 -87z m1105 80 c0 -5 -7 -55 -15 -112 -29
-200 -92 -406 -181 -582 -40 -81 -155 -259 -207 -323 l-24 -30 -74 48 c-88 57
-244 133 -350 170 l-76 28 18 76 c44 183 89 512 89 651 0 37 3 71 7 74 9 10
813 9 813 0z m-2040 -1289 l0 -345 -42 23 c-67 36 -174 144 -234 233 -53 81
-166 305 -179 356 -5 22 -3 27 17 32 32 8 267 36 338 40 30 2 65 4 78 5 l22 2
0 -346z m525 325 c97 -10 225 -29 225 -33 0 -2 -12 -31 -26 -66 -67 -165 -165
-333 -253 -432 -36 -40 -167 -138 -185 -138 -8 0 -8 675 1 683 7 7 58 4 238
-14z m-1246 -161 c63 -164 169 -349 273 -475 33 -40 57 -73 54 -73 -22 0 -197
69 -289 114 -164 79 -454 281 -444 310 6 17 158 98 265 142 59 24 109 43 112
44 3 0 16 -28 29 -62z m1981 -34 c47 -23 102 -54 124 -67 l38 -24 -57 -49
c-104 -90 -229 -173 -365 -243 -124 -63 -307 -137 -317 -127 -2 2 14 24 36 50
111 128 242 359 304 538 6 16 12 16 79 -8 40 -15 111 -46 158 -70z"/>
</g>
</svg>
