<?xml version="1.0" encoding="UTF-8"?>
<svg version="1.1" xmlns="http://www.w3.org/2000/svg" width="1080" height="1080">
<path d="M0 0 C356.4 0 712.8 0 1080 0 C1080 356.4 1080 712.8 1080 1080 C723.6 1080 367.2 1080 0 1080 C0 723.6 0 367.2 0 0 Z " fill="#FEFEFF" transform="translate(0,0)"/>
<path d="M0 0 C1.1461377 -0.00095673 2.29227539 -0.00191345 3.47314453 -0.00289917 C5.86962947 -0.00357376 8.26611632 -0.00177034 10.66259766 0.00244141 C14.33109594 0.00783987 17.99947401 0.00245163 21.66796875 -0.00390625 C24.00781277 -0.00324611 26.34765671 -0.00196629 28.6875 0 C29.78022217 -0.00202423 30.87294434 -0.00404846 31.9987793 -0.00613403 C33.0175415 -0.00298187 34.03630371 0.00017029 35.0859375 0.00341797 C35.97716309 0.00421356 36.86838867 0.00500916 37.78662109 0.00582886 C40.38561494 0.13648821 42.77147215 0.58848976 45.3125 1.1328125 C47.39427607 1.28151079 49.47799943 1.40408143 51.5625 1.5078125 C59.1515148 2.0200513 66.4903257 3.25588997 73.95410156 4.68701172 C76.44291779 5.15746497 78.93554064 5.60169661 81.4296875 6.04296875 C83.20321931 6.36406285 84.97665834 6.68566991 86.75 7.0078125 C87.5344751 7.14485596 88.3189502 7.28189941 89.12719727 7.4230957 C104.01092441 10.18941551 118.53549772 14.97921107 132.875 19.7578125 C133.64975677 20.01570557 134.42451355 20.27359863 135.2227478 20.53930664 C149.30811298 25.25479101 162.94173022 30.63536095 176.3125 37.1328125 C177.25770508 37.59091309 178.20291016 38.04901367 179.17675781 38.52099609 C200.37914126 48.92687415 221.01823557 61.03313595 239.54199219 75.73144531 C241.36151454 77.1716078 243.1978978 78.58763919 245.0390625 80 C251.18450794 84.73572293 257.13228589 89.59908747 262.8359375 94.8671875 C264.85593822 96.71513769 266.90521481 98.50455717 268.98046875 100.2890625 C273.93862002 104.61790106 278.59943721 109.22784869 283.25 113.8828125 C284.1380835 114.77170166 285.02616699 115.66059082 285.94116211 116.57641602 C291.03832713 121.72157428 295.89187279 126.86851574 300.33203125 132.59375 C302.2069987 134.99755442 304.17222433 137.29909607 306.17529297 139.59643555 C321.86536368 157.68060891 334.85243828 178.15774541 346.3125 199.1328125 C346.71791016 199.8659668 347.12332031 200.59912109 347.54101562 201.35449219 C370.91818347 243.83167198 384.57181561 290.11950513 390.3125 338.1328125 C390.39790039 338.77995209 390.48330078 339.42709167 390.57128906 340.09384155 C392.34117148 353.54404894 392.62234091 366.87298769 392.57324219 380.42895508 C392.56254669 383.93002768 392.57318766 387.43058372 392.5859375 390.93164062 C392.60023486 410.73793533 391.27110555 430.10609767 387.5625 449.5703125 C387.43178101 450.26959869 387.30106201 450.96888489 387.16638184 451.68936157 C381.44739301 482.19077875 372.31090958 511.93164964 359.3125 540.1328125 C358.92626465 540.98601074 358.5400293 541.83920898 358.14208984 542.71826172 C337.34781503 588.5541888 306.16093736 633.05236627 267.76953125 666.01171875 C265.87398331 667.64809797 264.001522 669.30184076 262.13671875 670.97265625 C223.96746913 704.9388697 178.32854367 729.33439546 130.3125 746.1328125 C129.42933105 746.44234863 128.54616211 746.75188477 127.63623047 747.07080078 C114.76107331 751.51802309 101.66253262 754.4881656 88.3125 757.1328125 C87.40628906 757.31585937 86.50007813 757.49890625 85.56640625 757.6875 C61.36906453 762.53399225 37.37658867 764.66593846 12.71020508 764.57885742 C9.99537213 764.56969692 7.28140218 764.57655769 4.56665039 764.59936523 C-21.05643803 764.81320181 -46.31033993 762.72170083 -71.30419922 756.70556641 C-73.93944862 756.07226431 -76.58095441 755.46907655 -79.22265625 754.86328125 C-133.03735917 742.24272297 -183.43130451 717.48002472 -226.6875 683.1328125 C-227.62078125 682.39417969 -228.5540625 681.65554688 -229.515625 680.89453125 C-235.5372205 676.05144801 -241.25466965 670.9419917 -246.9140625 665.6875 C-249.15827035 663.62030009 -251.42935859 661.6124617 -253.75 659.6328125 C-261.67404902 652.74879492 -268.89389709 645.12120037 -275.6875 637.1328125 C-276.95787109 635.69615234 -276.95787109 635.69615234 -278.25390625 634.23046875 C-294.83342894 615.3930564 -309.10660234 594.81478506 -321.6875 573.1328125 C-322.07905273 572.46475586 -322.47060547 571.79669922 -322.87402344 571.10839844 C-339.69212631 542.28317296 -351.64537318 511.03240912 -360.00146484 478.77734375 C-360.61519758 476.41152419 -361.25030203 474.05296349 -361.89453125 471.6953125 C-364.25604655 462.88233384 -365.76234151 454.04106386 -367.07421875 445.01953125 C-367.56226328 441.23435465 -367.56226328 441.23435465 -368.6875 438.1328125 C-369.06008427 435.23655197 -369.39130372 432.34942448 -369.6875 429.4453125 C-369.81125 428.30739258 -369.81125 428.30739258 -369.9375 427.14648438 C-373.43852223 393.53120058 -374.32113851 357.50946332 -368.6875 324.1328125 C-368.48882324 322.95170898 -368.29014648 321.77060547 -368.08544922 320.55371094 C-361.88203163 284.95027606 -351.26676036 250.74557706 -335.6875 218.1328125 C-335.1320752 216.95041992 -335.1320752 216.95041992 -334.56542969 215.74414062 C-324.77147922 194.97726028 -312.92429215 175.32144348 -299.09082031 156.99902344 C-297.82006373 155.30910288 -296.57295352 153.60531128 -295.3359375 151.890625 C-289.25948596 143.56036234 -282.53437372 135.83060914 -275.6875 128.1328125 C-275.00671387 127.36300049 -274.32592773 126.59318848 -273.62451172 125.80004883 C-268.19752337 119.70703723 -262.58450786 113.83675322 -256.8125 108.0703125 C-255.93335938 107.19197754 -255.05421875 106.31364258 -254.1484375 105.40869141 C-248.24831406 99.56420892 -242.25426628 94.2160913 -235.6875 89.1328125 C-233.83019596 87.55316059 -231.97622867 85.96957993 -230.125 84.3828125 C-179.8228823 42.50759596 -114.74320481 12.68222751 -49.6875 4.1328125 C-48.35960449 3.95685547 -48.35960449 3.95685547 -47.00488281 3.77734375 C-43.8998814 3.36860456 -40.7939521 2.96787151 -37.6875 2.5703125 C-36.70249512 2.44325928 -35.71749023 2.31620605 -34.70263672 2.18530273 C-23.13506833 0.74007404 -11.65770526 -0.02192036 0 0 Z " fill="#0101FF" transform="translate(529.6875,157.8671875)"/>
<path d="M0 0 C53.79 0 107.58 0 163 0 C181.57859407 46.44648519 191 99.09285245 191 149 C127.97 149 64.94 149 0 149 C0 99.83 0 50.66 0 0 Z " fill="#FDFDFF" transform="translate(561,370)"/>
<path d="M0 0 C63.03 0 126.06 0 191 0 C189.28277404 42.93064909 183.21178825 83.18899216 171.375 124.4375 C171.09286148 125.42420685 171.09286148 125.42420685 170.80502319 126.43084717 C170.25922024 128.32944532 169.70393651 130.22530983 169.1484375 132.12109375 C168.83052246 133.2083374 168.51260742 134.29558105 168.18505859 135.41577148 C166.66358632 140.01748851 164.80002596 144.49993511 163 149 C109.21 149 55.42 149 0 149 C0 99.83 0 50.66 0 0 Z " fill="#FDFDFF" transform="translate(561,561)"/>
<path d="M0 0 C53.79 0 107.58 0 163 0 C163 49.17 163 98.34 163 149 C100.3 149 37.6 149 -27 149 C-27 125.95937218 -27 125.95937218 -26.08203125 118.30078125 C-25.98476746 117.41999405 -25.88750366 116.53920685 -25.78729248 115.63172913 C-25.47570816 112.85691671 -25.14597166 110.08476049 -24.8125 107.3125 C-24.70018036 106.35232971 -24.58786072 105.39215942 -24.47213745 104.40289307 C-22.82712661 90.39494055 -20.84163931 76.58626022 -17.65039062 62.83544922 C-16.96477727 59.84644266 -16.33147363 56.84919326 -15.703125 53.84765625 C-7.29285783 14.58571566 -7.29285783 14.58571566 0 0 Z " fill="#FEFEFF" transform="translate(356,370)"/>
<path d="M0 0 C62.7 0 125.4 0 190 0 C190 48.84 190 97.68 190 148 C136.21 148 82.42 148 27 148 C17.60796707 120.99790532 17.60796707 120.99790532 14.375 107.5625 C14.19023102 106.80519592 14.00546204 106.04789185 13.81509399 105.26763916 C8.14264254 81.96040313 3.91644363 58.81664428 1.625 34.9375 C1.53914642 34.05044373 1.45329285 33.16338745 1.36483765 32.24945068 C1.1208703 29.67623086 0.88958769 27.1022405 0.6640625 24.52734375 C0.59565659 23.78770889 0.52725067 23.04807404 0.45677185 22.286026 C-0.16203811 14.80037225 0 7.60115422 0 0 Z " fill="#FEFEFF" transform="translate(329,562)"/>
<path d="M0 0 C8.65649909 1.33176909 16.04677961 2.61614227 24.125 5.5 C25.59815674 6.02122437 25.59815674 6.02122437 27.10107422 6.55297852 C59.9481867 18.57959365 88.77532456 42.45845687 110 70 C110.44666016 70.57024902 110.89332031 71.14049805 111.35351562 71.72802734 C145 114.76502241 145 114.76502241 145 126 C97.15 126 49.3 126 0 126 C0 84.42 0 42.84 0 0 Z " fill="#FCFCFF" transform="translate(561,202)"/>
<path d="M0 0 C0 41.58 0 83.16 0 126 C-47.52 126 -95.04 126 -144 126 C-142.67342677 122.0202803 -141.6235273 119.01379677 -139.6796875 115.4609375 C-139.23133545 114.63972412 -138.7829834 113.81851074 -138.32104492 112.97241211 C-137.8438501 112.11526611 -137.36665527 111.25812012 -136.875 110.375 C-136.37782471 109.47982666 -135.88064941 108.58465332 -135.3684082 107.66235352 C-131.55812396 100.86877104 -127.54235283 94.33293901 -123 88 C-122.4853418 87.27925293 -121.97068359 86.55850586 -121.44042969 85.81591797 C-114.71716425 76.4333372 -107.9328937 67.39577884 -100 59 C-98.82770322 57.65070436 -97.66084179 56.29666328 -96.5 54.9375 C-89.35273724 46.77388336 -81.55668629 39.66128715 -73 33 C-72.19248291 32.36191406 -72.19248291 32.36191406 -71.36865234 31.7109375 C-52.36718726 16.78472204 -25.08315253 0 0 0 Z " fill="#FDFDFF" transform="translate(519,202)"/>
<path d="M0 0 C47.52 0 95.04 0 144 0 C144 41.25 144 82.5 144 125 C136.14866165 124.28624197 130.04244835 123.45247395 122.8125 120.9375 C121.90685303 120.62804443 121.00120605 120.31858887 120.06811523 119.99975586 C111.6441407 117.03195794 103.82282556 113.27911683 96 109 C94.79842912 108.36670907 93.59660927 107.73389027 92.39453125 107.1015625 C78.71299707 99.75417675 67.15583292 89.70737469 56 79 C55.43780762 78.46503906 54.87561523 77.93007813 54.29638672 77.37890625 C46.24911629 69.6848006 38.9741005 61.71282189 32.32666016 52.77978516 C30.98599624 50.98121321 29.62517009 49.19930656 28.26171875 47.41796875 C19.05407505 35.264856 11.34581348 22.23684938 3.8125 9 C3.42562012 8.32332275 3.03874023 7.64664551 2.64013672 6.94946289 C0 2.24119877 0 2.24119877 0 0 Z " fill="#FEFEFF" transform="translate(375,753)"/>
<path d="M0 0 C47.19 0 94.38 0 143 0 C136.98726433 24.0509427 115.40874082 49.80298745 98.59765625 67.28515625 C96.47030335 69.50847996 94.47052451 71.76511884 92.5 74.125 C69.87999731 100.13253933 34.46951814 121.55304819 0 125 C0 83.75 0 42.5 0 0 Z " fill="#FEFEFF" transform="translate(562,753)"/>
<path d="M0 0 C21.78 0 43.56 0 66 0 C89.77903274 45.85956314 110 96.40916457 110 149 C81.95 149 53.9 149 25 149 C24.01 135.14 23.02 121.28 22 107 C21.19323339 99.91065429 20.36991401 92.90715716 19.25 85.875 C19.06158035 84.64162399 19.06158035 84.64162399 18.86935425 83.3833313 C15.21145964 59.4412906 10.10239821 35.93253572 2.75854492 12.83056641 C1.6261838 8.60507723 0.85792685 4.28963425 0 0 Z " fill="#FDFDFF" transform="translate(769,370)"/>
<path d="M0 0 C1.1702623 0.00222061 2.3405246 0.00444122 3.54624939 0.00672913 C4.19013107 0.0065831 4.83401276 0.00643707 5.49740601 0.00628662 C7.63473327 0.00698567 9.77197438 0.01477761 11.9092865 0.02259827 C13.3875931 0.02446248 14.86590032 0.02588637 16.34420776 0.02688599 C20.24211827 0.03071093 24.13999174 0.040541 28.03788757 0.05158997 C32.01259358 0.0618046 35.98730554 0.06638372 39.96202087 0.07142639 C47.76607425 0.0821633 55.57009707 0.09923942 63.37413025 0.12025452 C60.28182214 11.5086393 60.28182214 11.5086393 58.72569275 16.88978577 C48.64775453 52.03952662 41.37701319 88.42899657 39.31163025 124.99525452 C39.15715706 127.65951555 38.99854822 130.32347566 38.838974 132.98744202 C38.77315125 134.14356995 38.70732849 135.29969788 38.63951111 136.49085999 C38.33097371 140.71047078 37.84135233 144.91525582 37.37413025 149.12025452 C9.32413025 149.12025452 -18.72586975 149.12025452 -47.62586975 149.12025452 C-46.98045945 139.43909996 -46.22376332 130.1003279 -44.75086975 120.55775452 C-44.5708844 119.376651 -44.39089905 118.19554749 -44.20545959 116.97865295 C-42.95840424 108.94108689 -41.58334516 101.01883949 -39.62586975 93.12025452 C-39.43831116 92.33392639 -39.25075256 91.54759827 -39.05751038 90.73744202 C-17.50207332 0.80152619 -17.50207332 0.80152619 0 0 Z " fill="#FDFDFF" transform="translate(248.62586975097656,369.87974548339844)"/>
<path d="M0 0 C27.72 0 55.44 0 84 0 C84.598125 6.744375 85.19625 13.48875 85.8125 20.4375 C89.64098971 62.65440121 95.67658789 103.91906258 109.46850586 144.21362305 C110 146 110 146 110 148 C101.49864559 148.23205316 92.99862043 148.40954701 84.49487877 148.51812172 C80.54573854 148.57024381 76.59876931 148.64087888 72.65087891 148.75439453 C68.83812932 148.86333396 65.02746193 148.92289369 61.21327591 148.94877243 C59.76095404 148.96720307 58.30874219 149.00320135 56.85731125 149.05730057 C52.42967856 149.21571583 48.30227568 149.22403551 44 148 C40.98435636 145.02501776 39.52345542 141.90852154 38 138 C37.34132315 136.7461811 36.66946804 135.4991342 35.98046875 134.26171875 C15.21983927 92.87615017 0 46.63348538 0 0 Z " fill="#FEFEFF" transform="translate(202,562)"/>
<path d="M0 0 C28.05 0 56.1 0 85 0 C82.67879836 31.3362222 82.67879836 31.3362222 80.25 42.875 C79.98396837 44.18484633 79.71818656 45.49474341 79.45263672 46.8046875 C77.20344168 57.71608422 74.43701989 68.4048891 71 79 C70.70899414 79.90588867 70.41798828 80.81177734 70.11816406 81.74511719 C62.56630028 104.99207142 52.36212923 126.22258564 41 148 C19.22 148 -2.56 148 -25 148 C-23.87545433 140.12818028 -23.87545433 140.12818028 -22.94921875 137.08984375 C-22.74748047 136.41824219 -22.54574219 135.74664063 -22.33789062 135.0546875 C-22.12326172 134.35601563 -21.90863281 133.65734375 -21.6875 132.9375 C-21.23296489 131.41539684 -20.77853909 129.89326103 -20.32421875 128.37109375 C-19.54786496 125.79640006 -18.75866406 123.22718267 -17.95703125 120.66015625 C-14.74374222 110.04974472 -12.71783829 99.22036491 -10.64550781 88.33984375 C-10.02462901 85.12742995 -9.37167374 81.92317039 -8.7109375 78.71875 C-6.0238303 65.38676142 -4.17395547 52.07896405 -2.75 38.5625 C-2.6255098 37.3956517 -2.6255098 37.3956517 -2.49850464 36.20523071 C-1.22771172 24.13229885 -0.60730673 12.14613469 0 0 Z " fill="#FEFEFF" transform="translate(794,562)"/>
<path d="M0 0 C40.59134515 14.99946849 82.31049571 53.76956961 108 88 C108 88.33 108 88.66 108 89 C90.51 89 73.02 89 55 89 C52.793125 84.50375 50.58625 80.0075 48.3125 75.375 C35.5459237 49.71387562 20.76574399 25.9142464 2.3515625 3.89453125 C0 1 0 1 0 0 Z " fill="#FBFBFF" transform="translate(697,239)"/>
<path d="M0 0 C0 3.71191755 -0.66100466 3.98391197 -3.1875 6.5625 C-24.88552905 30.28516909 -39.7631561 60.52631219 -54 89 C-71.49 89 -88.98 89 -107 89 C-103.23304106 83.97738808 -99.79030315 79.51620192 -95.5625 75 C-92.5473501 71.76833132 -89.57448111 68.52605478 -86.75 65.125 C-81.04816208 58.56584516 -74.43901648 52.81797812 -68 47 C-67.1349585 46.21786133 -67.1349585 46.21786133 -66.25244141 45.41992188 C-46.17358059 27.41292246 -23.61476903 12.89854971 0 0 Z " fill="#FBFBFF" transform="translate(382,239)"/>
<path d="M0 0 C17.49 0 34.98 0 53 0 C54.815 3.898125 56.63 7.79625 58.5 11.8125 C71.47346349 39.0653008 87.67572554 63.84203883 107 87 C106.01 87.495 106.01 87.495 105 88 C102.56110698 86.83129969 100.27106751 85.60551803 97.9375 84.25 C97.22505127 83.84096436 96.51260254 83.43192871 95.77856445 83.01049805 C76.09923276 71.58524771 57.47164935 58.44823509 40.47119141 43.30810547 C39.15028365 42.13362426 37.81618066 40.97402324 36.48046875 39.81640625 C24.71995743 29.49914176 13.55504066 18.40078103 4 6 C3.26265625 5.09636719 2.5253125 4.19273437 1.765625 3.26171875 C0 1 0 1 0 0 Z " fill="#FCFCFF" transform="translate(276,753)"/>
<path d="M0 0 C17.49 0 34.98 0 53 0 C49.12402199 5.16797069 45.40334617 9.9214813 41 14.5625 C37.83289826 17.93783626 34.68980752 21.29715734 31.75 24.875 C29.11181965 28.0160593 26.11430999 30.60695379 22.9921875 33.2578125 C21.12494265 34.89073643 19.40737604 36.58929139 17.6875 38.375 C13.64535656 42.46225665 9.24489527 46.04471012 4.74462891 49.61474609 C3.49921567 50.60361745 2.25705357 51.59658909 1.01708984 52.59228516 C-12.8057066 63.67776871 -27.14967323 73.24997905 -42.4375 82.1875 C-43.26113037 82.66985107 -44.08476074 83.15220215 -44.93334961 83.64916992 C-46.07815796 84.30816284 -46.07815796 84.30816284 -47.24609375 84.98046875 C-47.92341553 85.37129639 -48.6007373 85.76212402 -49.29858398 86.16479492 C-51 87 -51 87 -53 87 C-51.65853865 84.11152759 -50.13093665 81.74202764 -48.12890625 79.26953125 C-47.56018799 78.55804932 -46.99146973 77.84656738 -46.40551758 77.11352539 C-45.79732178 76.35418701 -45.18912598 75.59484863 -44.5625 74.8125 C-26.51720858 51.90699158 -12.99953084 25.99906169 0 0 Z " fill="#FCFCFF" transform="translate(752,753)"/>
</svg>
